<svg xmlns="http://www.w3.org/2000/svg" viewBox="0 0 1200 800" role="img" aria-labelledby="title">
  <title>Abstract analytics background</title>
  <rect width="1200" height="800" fill="#f7f9fc"/>
  <g opacity="0.35">
    <circle cx="180" cy="150" r="120" fill="#dce7ff"/>
    <circle cx="1010" cy="130" r="140" fill="#eaf2ff"/>
    <circle cx="930" cy="640" r="170" fill="#e2eefc"/>
  </g>
  <g stroke="#bfd1f4" stroke-width="2" opacity="0.6">
    <path d="M0 250H1200"/>
    <path d="M0 450H1200"/>
    <path d="M240 0V800"/>
    <path d="M600 0V800"/>
    <path d="M920 0V800"/>
  </g>
  <g fill="none" stroke="#1f4fd8" stroke-width="10" stroke-linecap="round" stroke-linejoin="round" opacity="0.8">
    <path d="M120 560L270 470 390 500 540 350 710 390 860 250 1030 300"/>
  </g>
  <g fill="#1f4fd8" opacity="0.9">
    <circle cx="120" cy="560" r="12"/>
    <circle cx="270" cy="470" r="12"/>
    <circle cx="390" cy="500" r="12"/>
    <circle cx="540" cy="350" r="12"/>
    <circle cx="710" cy="390" r="12"/>
    <circle cx="860" cy="250" r="12"/>
    <circle cx="1030" cy="300" r="12"/>
  </g>
</svg>
